<svg width="607" height="992" viewBox="0 0 607 992" fill="none" xmlns="http://www.w3.org/2000/svg"><g clip-path="url(#clip0_350_2491)" fill="#9315F6"><circle cx="440.761" cy="165.285" r="165.285" fill-opacity=".5"/><path d="M440.761 151.511L606.046 330.57h-330.57l165.285-179.059z" fill-opacity=".6"/><path opacity=".6" fill-opacity=".8" d="M165.286 0h275.475v330.57H165.286z"/></g><g clip-path="url(#clip1_350_2491)" fill="#9315F6"><circle cx="165.285" cy="165.285" r="165.285" transform="matrix(1 0 0 -1 275.476 661.141)" fill-opacity=".5"/><path d="M440.761 509.63l165.285-179.059h-330.57L440.761 509.63z" fill-opacity=".6"/><path opacity=".6" fill-opacity=".6" d="M165.286 661.141h275.475v-330.57H165.286z"/></g><g clip-path="url(#clip2_350_2491)" fill="#9315F6"><circle cx="165.285" cy="165.285" r="165.285" transform="matrix(-1 0 0 1 330.571 330.57)" fill-opacity=".5"/><path d="M165.286 482.081L.001 661.14h330.57L165.286 482.081z" fill-opacity=".6"/><path opacity=".6" fill-opacity=".8" d="M440.761 330.57H165.286v330.57h275.475z"/></g><g clip-path="url(#clip3_350_2491)" fill="#9315F6"><circle cx="165.286" cy="826.426" r="165.285" transform="rotate(-180 165.286 826.426)" fill-opacity=".5"/><path d="M165.286 840.199L.001 661.14h330.57L165.286 840.199z" fill-opacity=".6"/><path opacity=".6" fill-opacity=".6" d="M440.761 991.711H165.286v-330.57h275.475z"/></g><defs><clipPath id="clip0_350_2491"><path fill="#fff" transform="translate(165.286)" d="M0 0h440.76v330.57H0z"/></clipPath><clipPath id="clip1_350_2491"><path fill="#fff" transform="matrix(1 0 0 -1 165.286 661.141)" d="M0 0h440.76v330.57H0z"/></clipPath><clipPath id="clip2_350_2491"><path fill="#fff" transform="matrix(-1 0 0 1 440.761 330.57)" d="M0 0h440.76v330.57H0z"/></clipPath><clipPath id="clip3_350_2491"><path fill="#fff" transform="rotate(-180 220.38 495.856)" d="M0 0h440.76v330.57H0z"/></clipPath></defs></svg>